<svg xmlns="http://www.w3.org/2000/svg" viewBox="0 0 1280 340" width="1280" height="340" font-family="'Segoe UI',system-ui,sans-serif">
  <defs>
    <linearGradient id="bg" x1="0" y1="0" x2="0" y2="1">
      <stop offset="0" stop-color="#0b1120"/><stop offset="1" stop-color="#070b14"/>
    </linearGradient>
    <clipPath id="up"><rect x="0" y="0" width="1280" height="250"/></clipPath>
    <clipPath id="dn"><rect x="0" y="250" width="1280" height="90"/></clipPath>
  </defs>

  <rect width="1280" height="340" fill="url(#bg)"/>
  <rect width="1280" height="340" fill="none" stroke="#1c2740" stroke-width="1.5"/>

  <!-- real ONI record as backdrop: coral above 0, blue below -->
  <polygon points="36.0,250 36.0,280.6 37.3,276.8 38.6,273.2 40.0,273.6 41.3,271.4 42.6,267.0 43.9,260.8 45.2,258.4 46.6,257.8 47.9,258.8 49.2,262.0 50.5,266.0 51.8,266.4 53.2,260.8 54.5,253.4 55.8,246.4 57.1,242.8 58.4,238.4 59.8,236.0 61.1,232.2 62.4,230.2 63.7,227.0 65.0,229.2 66.4,233.8 67.7,239.4 69.0,242.6 70.3,243.2 71.6,244.2 73.0,246.0 74.3,250.0 75.6,251.6 76.9,250.0 78.2,247.0 79.6,248.0 80.9,249.2 82.2,247.0 83.5,242.0 84.8,238.0 86.2,237.4 87.5,236.8 88.8,235.0 90.1,234.6 91.4,235.0 92.8,235.4 94.1,234.4 95.4,233.2 96.7,233.2 98.1,233.8 99.4,234.8 100.7,240.6 102.0,251.0 103.3,258.2 104.7,260.8 106.0,260.0 107.3,262.8 108.6,266.8 109.9,268.0 111.3,265.4 112.6,264.6 113.9,263.2 115.2,263.6 116.5,262.4 117.9,263.8 119.2,266.0 120.5,265.8 121.8,264.4 123.1,263.6 124.5,265.0 125.8,271.8 127.1,278.4 128.4,283.4 129.7,279.4 131.1,272.2 132.4,265.2 133.7,262.6 135.0,260.8 136.3,260.4 137.7,260.2 139.0,261.4 140.3,261.0 141.6,259.2 142.9,258.4 144.3,258.6 145.6,258.6 146.9,255.0 148.2,248.8 149.5,241.8 150.9,235.6 152.2,231.6 153.5,227.8 154.8,225.0 156.1,223.6 157.5,223.4 158.8,222.2 160.1,219.4 161.4,215.2 162.7,213.8 164.1,216.8 165.4,224.6 166.7,231.4 168.0,235.2 169.3,237.2 170.7,238.6 172.0,241.4 173.3,242.2 174.6,241.2 175.9,240.0 177.3,237.8 178.6,237.8 179.9,237.6 181.2,239.6 182.5,243.4 183.9,246.0 185.2,251.4 186.5,253.6 187.8,255.6 189.1,251.8 190.5,250.6 191.8,249.0 193.1,250.8 194.4,252.0 195.7,252.0 197.1,251.4 198.4,249.4 199.7,249.6 201.0,249.4 202.3,247.4 203.7,245.2 205.0,244.6 206.3,246.0 207.6,247.6 208.9,249.0 210.3,249.2 211.6,249.4 212.9,249.2 214.2,248.2 215.5,245.4 216.9,244.6 218.2,247.2 219.5,252.6 220.8,256.0 222.2,255.2 223.5,253.8 224.8,253.2 226.1,254.8 227.4,254.4 228.8,254.0 230.1,255.2 231.4,255.6 232.7,254.0 234.0,250.8 235.4,251.4 236.7,252.2 238.0,254.4 239.3,256.2 240.6,258.6 242.0,258.0 243.3,253.0 244.6,247.0 245.9,244.6 247.2,243.8 248.6,239.6 249.9,232.8 251.2,227.2 252.5,225.6 253.8,224.2 255.2,222.6 256.5,223.8 257.8,228.6 259.1,237.6 260.4,247.6 261.8,256.6 263.1,261.6 264.4,261.6 265.7,262.0 267.0,263.2 268.4,265.2 269.7,266.0 271.0,266.4 272.3,265.6 273.6,261.8 275.0,255.6 276.3,251.4 277.6,246.4 278.9,240.8 280.2,233.4 281.6,225.6 282.9,219.2 284.2,213.0 285.5,210.4 286.8,210.6 288.2,215.6 289.5,222.6 290.8,226.6 292.1,230.4 293.4,236.8 294.8,243.0 296.1,245.2 297.4,245.2 298.7,247.6 300.0,251.0 301.4,252.0 302.7,253.6 304.0,256.0 305.3,258.2 306.6,259.6 308.0,260.6 309.3,259.0 310.6,254.8 311.9,250.0 313.2,249.0 314.6,253.2 315.9,256.0 317.2,257.6 318.5,256.8 319.8,258.8 321.2,262.8 322.5,264.8 323.8,262.4 325.1,258.8 326.4,250.8 327.8,244.4 329.1,238.4 330.4,239.4 331.7,241.0 333.0,239.0 334.4,235.4 335.7,230.4 337.0,227.4 338.3,228.2 339.7,231.0 341.0,234.6 342.3,237.8 343.6,241.4 344.9,242.8 346.3,239.8 347.6,234.2 348.9,232.8 350.2,233.8 351.5,237.4 352.9,239.8 354.2,243.2 355.5,244.2 356.8,246.2 358.1,249.2 359.5,256.0 360.8,262.6 362.1,265.2 363.4,265.4 364.7,264.8 366.1,267.2 367.4,273.0 368.7,277.2 370.0,277.6 371.3,272.4 372.7,267.0 374.0,264.6 375.3,264.8 376.6,266.0 377.9,265.4 379.3,266.4 380.6,267.0 381.9,269.2 383.2,268.0 384.5,264.2 385.9,257.0 387.2,248.8 388.5,241.8 389.8,236.6 391.1,231.6 392.5,227.4 393.8,222.6 395.1,218.4 396.4,213.2 397.7,208.2 399.1,207.6 400.4,213.2 401.7,225.0 403.0,239.2 404.3,252.0 405.7,260.8 407.0,267.4 408.3,272.2 409.6,275.6 410.9,279.0 412.3,284.2 413.6,289.0 414.9,290.6 416.2,286.8 417.5,281.0 418.9,274.6 420.2,270.6 421.5,268.2 422.8,265.4 424.1,260.6 425.5,257.4 426.8,258.2 428.1,262.2 429.4,265.0 430.7,262.8 432.1,260.8 433.4,261.4 434.7,263.0 436.0,264.6 437.3,266.6 438.7,269.6 440.0,272.6 441.3,274.0 442.6,277.4 443.9,278.6 445.3,281.0 446.6,283.0 447.9,281.2 449.2,273.4 450.5,264.6 451.9,259.4 453.2,255.6 454.5,251.0 455.8,246.4 457.1,243.0 458.5,237.6 459.8,233.8 461.1,232.8 462.4,233.0 463.8,235.8 465.1,237.2 466.4,243.2 467.7,245.4 469.0,245.8 470.4,243.2 471.7,243.0 473.0,241.6 474.3,238.6 475.6,235.4 477.0,233.8 478.3,234.2 479.6,236.2 480.9,241.6 482.2,248.8 483.6,253.6 484.9,256.2 486.2,255.8 487.5,257.2 488.8,258.4 490.2,258.4 491.5,255.8 492.8,251.6 494.1,250.0 495.4,249.4 496.8,248.6 498.1,246.0 499.4,244.4 500.7,245.4 502.0,249.0 503.4,249.2 504.7,246.6 506.0,243.4 507.3,241.0 508.6,239.6 510.0,237.2 511.3,238.2 512.6,240.8 513.9,243.2 515.2,242.4 516.6,240.4 517.9,240.8 519.2,245.0 520.5,249.4 521.8,251.4 523.2,249.6 524.5,247.8 525.8,250.2 527.1,255.2 528.4,260.0 529.8,259.4 531.1,257.4 532.4,255.2 533.7,255.8 535.0,256.0 536.4,255.0 537.7,253.2 539.0,252.6 540.3,253.0 541.6,251.6 543.0,251.0 544.3,248.6 545.6,246.2 546.9,240.6 548.2,236.8 549.6,235.6 550.9,234.2 552.2,228.6 553.5,218.4 554.8,210.6 556.2,206.4 557.5,205.4 558.8,206.4 560.1,211.6 561.4,219.2 562.8,224.2 564.1,228.8 565.4,235.6 566.7,243.8 568.0,251.6 569.4,259.2 570.7,266.2 572.0,270.0 573.3,268.2 574.6,262.0 576.0,258.4 577.3,256.8 578.6,258.6 579.9,260.2 581.3,259.0 582.6,256.0 583.9,253.2 585.2,254.8 586.5,261.2 587.9,268.4 589.2,272.8 590.5,270.8 591.8,267.0 593.1,265.4 594.5,265.6 595.8,265.6 597.1,262.6 598.4,259.8 599.7,259.2 601.1,258.0 602.4,257.0 603.7,255.4 605.0,257.2 606.3,259.8 607.7,259.4 609.0,256.2 610.3,254.0 611.6,252.4 612.9,250.8 614.3,245.6 615.6,241.2 616.9,235.8 618.2,231.2 619.5,227.2 620.9,225.6 622.2,225.4 623.5,226.2 624.8,228.8 626.1,231.0 627.5,230.6 628.8,225.6 630.1,219.8 631.4,216.0 632.7,217.0 634.1,220.4 635.4,225.0 636.7,227.8 638.0,233.8 639.3,239.2 640.7,247.2 642.0,256.2 643.3,267.6 644.6,276.0 645.9,276.0 647.3,272.2 648.6,273.8 649.9,279.6 651.2,286.0 652.5,287.0 653.9,283.8 655.2,278.6 656.5,271.6 657.8,266.6 659.1,261.6 660.5,258.0 661.8,256.2 663.1,255.4 664.4,254.8 665.7,254.4 667.1,253.2 668.4,251.0 669.7,247.2 671.0,245.8 672.3,244.4 673.7,244.2 675.0,244.2 676.3,243.8 677.6,243.4 678.9,242.4 680.3,242.2 681.6,243.0 682.9,242.0 684.2,241.8 685.5,241.8 686.9,244.8 688.2,245.6 689.5,244.8 690.8,241.0 692.1,237.2 693.5,235.4 694.8,237.2 696.1,237.6 697.4,234.2 698.7,225.8 700.1,219.4 701.4,215.8 702.7,217.4 704.0,220.4 705.4,224.2 706.7,228.8 708.0,235.4 709.3,242.6 710.6,248.2 712.0,252.6 713.3,255.0 714.6,255.6 715.9,252.6 717.2,248.2 718.6,244.0 719.9,240.0 721.2,236.6 722.5,236.0 723.8,238.6 725.2,243.6 726.5,245.0 727.8,247.0 729.1,248.0 730.4,249.2 731.8,248.8 733.1,248.8 734.4,248.6 735.7,246.6 737.0,243.8 738.4,241.6 739.7,241.8 741.0,241.2 742.3,241.4 743.6,239.0 745.0,235.2 746.3,229.8 747.6,228.2 748.9,230.8 750.2,235.6 751.6,239.4 752.9,244.0 754.2,247.2 755.5,250.6 756.8,254.8 758.2,260.8 759.5,266.2 760.8,269.4 762.1,270.0 763.4,269.6 764.8,268.0 766.1,265.0 767.4,261.8 768.7,257.8 770.0,256.2 771.4,256.0 772.7,255.4 774.0,256.4 775.3,257.0 776.6,258.0 778.0,259.0 779.3,259.8 780.6,260.0 781.9,257.2 783.2,252.0 784.6,244.4 785.9,235.0 787.2,225.6 788.5,218.0 789.8,212.0 791.2,207.2 792.5,203.4 793.8,202.0 795.1,202.2 796.4,205.2 797.8,211.4 799.1,221.2 800.4,230.2 801.7,241.0 803.0,252.6 804.4,265.6 805.7,272.4 807.0,276.2 808.3,277.0 809.6,279.6 811.0,281.4 812.3,281.0 813.6,276.0 814.9,271.4 816.2,269.6 817.6,270.4 818.9,270.8 820.2,272.0 821.5,272.2 822.9,273.2 824.2,275.2 825.5,279.2 826.8,283.0 828.1,283.2 829.5,278.2 830.8,271.4 832.1,266.2 833.4,264.2 834.7,262.8 836.1,261.0 837.4,260.2 838.7,261.0 840.0,262.6 841.3,265.0 842.7,264.8 844.0,263.6 845.3,260.4 846.6,258.8 847.9,256.8 849.3,255.0 850.6,252.4 851.9,251.6 853.2,252.6 854.5,253.8 855.9,255.8 857.2,257.0 858.5,256.2 859.8,253.0 861.1,249.4 862.5,248.2 863.8,246.0 865.1,241.4 866.4,237.0 867.7,234.2 869.1,232.8 870.4,229.8 871.7,225.8 873.0,223.8 874.3,227.2 875.7,231.6 877.0,237.4 878.3,242.4 879.6,250.8 880.9,255.2 882.3,253.2 883.6,248.4 884.9,245.8 886.2,244.8 887.5,244.2 888.9,243.0 890.2,243.0 891.5,242.6 892.8,243.8 894.1,245.4 895.5,246.6 896.8,246.6 898.1,244.4 899.4,240.6 900.7,237.2 902.1,236.0 903.4,236.6 904.7,236.8 906.0,236.2 907.3,237.2 908.7,238.4 910.0,241.0 911.3,241.4 912.6,244.2 913.9,247.8 915.3,251.2 916.6,252.8 917.9,252.2 919.2,255.8 920.5,261.4 921.9,266.8 923.2,267.0 924.5,265.4 925.8,261.4 927.1,257.4 928.5,252.8 929.8,250.6 931.1,248.0 932.4,244.0 933.7,239.2 935.1,234.6 936.4,231.2 937.7,231.2 939.0,236.8 940.3,245.6 941.7,252.4 943.0,256.4 944.3,257.6 945.6,259.4 947.0,261.2 948.3,266.2 949.6,271.4 950.9,276.8 952.2,280.0 953.6,282.0 954.9,282.8 956.2,280.4 957.5,275.8 958.8,270.2 960.2,266.8 961.5,262.2 962.8,257.4 964.1,254.6 965.4,254.8 966.8,257.0 968.1,261.0 969.4,264.6 970.7,267.0 972.0,265.8 973.4,262.2 974.7,256.6 976.0,249.8 977.3,244.4 978.6,241.0 980.0,238.4 981.3,235.8 982.6,229.8 983.9,222.8 985.2,218.8 986.6,220.0 987.9,225.6 989.2,233.2 990.5,243.0 991.8,253.4 993.2,263.2 994.5,271.0 995.8,277.0 997.1,281.2 998.4,282.8 999.8,282.8 1001.1,280.8 1002.4,276.2 1003.7,270.8 1005.0,266.0 1006.4,262.4 1007.7,259.2 1009.0,257.4 1010.3,258.6 1011.6,261.6 1013.0,265.8 1014.3,269.2 1015.6,270.4 1016.9,268.4 1018.2,264.4 1019.6,261.4 1020.9,259.2 1022.2,257.2 1023.5,253.4 1024.8,248.8 1026.2,244.0 1027.5,241.8 1028.8,241.8 1030.1,243.8 1031.4,247.4 1032.8,252.0 1034.1,255.8 1035.4,255.8 1036.7,254.2 1038.0,253.8 1039.4,255.4 1040.7,256.8 1042.0,257.0 1043.3,255.6 1044.6,254.2 1046.0,252.6 1047.3,252.0 1048.6,253.0 1049.9,255.6 1051.2,256.4 1052.6,252.8 1053.9,247.0 1055.2,243.8 1056.5,245.4 1057.8,248.0 1059.2,247.8 1060.5,244.4 1061.8,239.2 1063.1,235.8 1064.5,234.6 1065.8,236.2 1067.1,237.8 1068.4,237.0 1069.7,233.8 1071.1,229.6 1072.4,225.0 1073.7,218.6 1075.0,211.8 1076.3,205.8 1077.7,200.6 1079.0,197.2 1080.3,195.0 1081.6,197.4 1082.9,204.4 1084.3,215.8 1085.6,229.0 1086.9,240.2 1088.2,250.0 1089.5,256.2 1090.9,260.0 1092.2,261.6 1093.5,262.8 1094.8,262.0 1096.1,259.0 1097.5,253.8 1098.8,250.4 1100.1,246.4 1101.4,243.8 1102.7,242.0 1104.1,242.2 1105.4,246.2 1106.7,251.4 1108.0,256.8 1109.3,262.0 1110.7,265.4 1112.0,267.2 1113.3,265.4 1114.6,264.2 1115.9,261.4 1117.3,257.8 1118.6,252.6 1119.9,248.8 1121.2,247.2 1122.5,244.6 1123.9,239.4 1125.2,233.8 1126.5,230.6 1127.8,231.6 1129.1,232.2 1130.5,232.8 1131.8,233.2 1133.1,234.6 1134.4,237.2 1135.7,239.6 1137.1,243.4 1138.4,246.2 1139.7,245.4 1141.0,242.2 1142.3,238.4 1143.7,236.8 1145.0,237.2 1146.3,237.4 1147.6,239.4 1148.9,244.0 1150.3,249.8 1151.6,254.6 1152.9,257.2 1154.2,260.6 1155.5,267.0 1156.9,272.4 1158.2,274.0 1159.5,271.6 1160.8,268.2 1162.1,265.8 1163.5,264.2 1164.8,261.0 1166.1,257.8 1167.4,256.0 1168.7,257.0 1170.1,259.0 1171.4,262.6 1172.7,265.2 1174.0,268.2 1175.3,267.4 1176.7,266.4 1178.0,265.8 1179.3,267.2 1180.6,269.0 1181.9,268.0 1183.3,265.6 1184.6,265.2 1185.9,267.4 1187.2,269.4 1188.6,268.8 1189.9,267.0 1191.2,264.2 1192.5,260.8 1193.8,255.8 1195.2,250.4 1196.5,244.6 1197.8,238.6 1199.1,233.2 1200.4,227.6 1201.8,222.6 1203.1,218.0 1204.4,213.4 1205.7,210.2 1207.0,208.8 1208.4,211.6 1209.7,217.6 1211.0,224.8 1212.3,233.6 1213.6,240.2 1215.0,245.6 1216.3,248.4 1217.6,251.4 1218.9,253.4 1220.2,254.2 1221.6,256.0 1222.9,258.4 1224.2,259.0 1225.5,254.8 1226.8,251.2 1228.2,249.6 1229.5,250.4 1230.8,250.8 1232.1,252.8 1233.4,255.6 1234.8,258.0 1236.1,260.2 1237.4,261.0 1238.7,260.8 1240.0,257.4 1241.4,252.8 1242.7,247.4 1244.0,240.4 1244.0,250" fill="#f4623a" opacity="0.16" clip-path="url(#up)"/>
  <polygon points="36.0,250 36.0,280.6 37.3,276.8 38.6,273.2 40.0,273.6 41.3,271.4 42.6,267.0 43.9,260.8 45.2,258.4 46.6,257.8 47.9,258.8 49.2,262.0 50.5,266.0 51.8,266.4 53.2,260.8 54.5,253.4 55.8,246.4 57.1,242.8 58.4,238.4 59.8,236.0 61.1,232.2 62.4,230.2 63.7,227.0 65.0,229.2 66.4,233.8 67.7,239.4 69.0,242.6 70.3,243.2 71.6,244.2 73.0,246.0 74.3,250.0 75.6,251.6 76.9,250.0 78.2,247.0 79.6,248.0 80.9,249.2 82.2,247.0 83.5,242.0 84.8,238.0 86.2,237.4 87.5,236.8 88.8,235.0 90.1,234.6 91.4,235.0 92.8,235.4 94.1,234.4 95.4,233.2 96.7,233.2 98.1,233.8 99.4,234.8 100.7,240.6 102.0,251.0 103.3,258.2 104.7,260.8 106.0,260.0 107.3,262.8 108.6,266.8 109.9,268.0 111.3,265.4 112.6,264.6 113.9,263.2 115.2,263.6 116.5,262.4 117.9,263.8 119.2,266.0 120.5,265.8 121.8,264.4 123.1,263.6 124.5,265.0 125.8,271.8 127.1,278.4 128.4,283.4 129.7,279.4 131.1,272.2 132.4,265.2 133.7,262.6 135.0,260.8 136.3,260.4 137.7,260.2 139.0,261.4 140.3,261.0 141.6,259.2 142.9,258.4 144.3,258.6 145.6,258.6 146.9,255.0 148.2,248.8 149.5,241.8 150.9,235.6 152.2,231.6 153.5,227.8 154.8,225.0 156.1,223.6 157.5,223.4 158.8,222.2 160.1,219.4 161.4,215.2 162.7,213.8 164.1,216.8 165.4,224.6 166.7,231.4 168.0,235.2 169.3,237.2 170.7,238.6 172.0,241.4 173.3,242.2 174.6,241.2 175.9,240.0 177.3,237.8 178.6,237.8 179.9,237.6 181.2,239.6 182.5,243.4 183.9,246.0 185.2,251.4 186.5,253.6 187.8,255.6 189.1,251.8 190.5,250.6 191.8,249.0 193.1,250.8 194.4,252.0 195.7,252.0 197.1,251.4 198.4,249.4 199.7,249.6 201.0,249.4 202.3,247.4 203.7,245.2 205.0,244.6 206.3,246.0 207.6,247.6 208.9,249.0 210.3,249.2 211.6,249.4 212.9,249.2 214.2,248.2 215.5,245.4 216.9,244.6 218.2,247.2 219.5,252.6 220.8,256.0 222.2,255.2 223.5,253.8 224.8,253.2 226.1,254.8 227.4,254.4 228.8,254.0 230.1,255.2 231.4,255.6 232.7,254.0 234.0,250.8 235.4,251.4 236.7,252.2 238.0,254.4 239.3,256.2 240.6,258.6 242.0,258.0 243.3,253.0 244.6,247.0 245.9,244.6 247.2,243.8 248.6,239.6 249.9,232.8 251.2,227.2 252.5,225.6 253.8,224.2 255.2,222.6 256.5,223.8 257.8,228.6 259.1,237.6 260.4,247.6 261.8,256.6 263.1,261.6 264.4,261.6 265.7,262.0 267.0,263.2 268.4,265.2 269.7,266.0 271.0,266.4 272.3,265.6 273.6,261.8 275.0,255.6 276.3,251.4 277.6,246.4 278.9,240.8 280.2,233.4 281.6,225.6 282.9,219.2 284.2,213.0 285.5,210.4 286.8,210.6 288.2,215.6 289.5,222.6 290.8,226.6 292.1,230.4 293.4,236.8 294.8,243.0 296.1,245.2 297.4,245.2 298.7,247.6 300.0,251.0 301.4,252.0 302.7,253.6 304.0,256.0 305.3,258.2 306.6,259.6 308.0,260.6 309.3,259.0 310.6,254.8 311.9,250.0 313.2,249.0 314.6,253.2 315.9,256.0 317.2,257.6 318.5,256.8 319.8,258.8 321.2,262.8 322.5,264.8 323.8,262.4 325.1,258.8 326.4,250.8 327.8,244.4 329.1,238.4 330.4,239.4 331.7,241.0 333.0,239.0 334.4,235.4 335.7,230.4 337.0,227.4 338.3,228.2 339.7,231.0 341.0,234.6 342.3,237.8 343.6,241.4 344.9,242.8 346.3,239.8 347.6,234.2 348.9,232.8 350.2,233.8 351.5,237.4 352.9,239.8 354.2,243.2 355.5,244.2 356.8,246.2 358.1,249.2 359.5,256.0 360.8,262.6 362.1,265.2 363.4,265.4 364.7,264.8 366.1,267.2 367.4,273.0 368.7,277.2 370.0,277.6 371.3,272.4 372.7,267.0 374.0,264.6 375.3,264.8 376.6,266.0 377.9,265.4 379.3,266.4 380.6,267.0 381.9,269.2 383.2,268.0 384.5,264.2 385.9,257.0 387.2,248.8 388.5,241.8 389.8,236.6 391.1,231.6 392.5,227.4 393.8,222.6 395.1,218.4 396.4,213.2 397.7,208.2 399.1,207.6 400.4,213.2 401.7,225.0 403.0,239.2 404.3,252.0 405.7,260.8 407.0,267.4 408.3,272.2 409.6,275.6 410.9,279.0 412.3,284.2 413.6,289.0 414.9,290.6 416.2,286.8 417.5,281.0 418.9,274.6 420.2,270.6 421.5,268.2 422.8,265.4 424.1,260.6 425.5,257.4 426.8,258.2 428.1,262.2 429.4,265.0 430.7,262.8 432.1,260.8 433.4,261.4 434.7,263.0 436.0,264.6 437.3,266.6 438.7,269.6 440.0,272.6 441.3,274.0 442.6,277.4 443.9,278.6 445.3,281.0 446.6,283.0 447.9,281.2 449.2,273.4 450.5,264.6 451.9,259.4 453.2,255.6 454.5,251.0 455.8,246.4 457.1,243.0 458.5,237.6 459.8,233.8 461.1,232.8 462.4,233.0 463.8,235.8 465.1,237.2 466.4,243.2 467.7,245.4 469.0,245.8 470.4,243.2 471.7,243.0 473.0,241.6 474.3,238.6 475.6,235.4 477.0,233.8 478.3,234.2 479.6,236.2 480.9,241.6 482.2,248.8 483.6,253.6 484.9,256.2 486.2,255.8 487.5,257.2 488.8,258.4 490.2,258.4 491.5,255.8 492.8,251.6 494.1,250.0 495.4,249.4 496.8,248.6 498.1,246.0 499.4,244.4 500.7,245.4 502.0,249.0 503.4,249.2 504.7,246.6 506.0,243.4 507.3,241.0 508.6,239.6 510.0,237.2 511.3,238.2 512.6,240.8 513.9,243.2 515.2,242.4 516.6,240.4 517.9,240.8 519.2,245.0 520.5,249.4 521.8,251.4 523.2,249.6 524.5,247.8 525.8,250.2 527.1,255.2 528.4,260.0 529.8,259.4 531.1,257.4 532.4,255.2 533.7,255.8 535.0,256.0 536.4,255.0 537.7,253.2 539.0,252.6 540.3,253.0 541.6,251.6 543.0,251.0 544.3,248.6 545.6,246.2 546.9,240.6 548.2,236.8 549.6,235.6 550.9,234.2 552.2,228.6 553.5,218.4 554.8,210.6 556.2,206.4 557.5,205.4 558.8,206.4 560.1,211.6 561.4,219.2 562.8,224.2 564.1,228.8 565.4,235.6 566.7,243.8 568.0,251.6 569.4,259.2 570.7,266.2 572.0,270.0 573.3,268.2 574.6,262.0 576.0,258.4 577.3,256.8 578.6,258.6 579.9,260.2 581.3,259.0 582.6,256.0 583.9,253.2 585.2,254.8 586.5,261.2 587.9,268.4 589.2,272.8 590.5,270.8 591.8,267.0 593.1,265.4 594.5,265.6 595.8,265.6 597.1,262.6 598.4,259.8 599.7,259.2 601.1,258.0 602.4,257.0 603.7,255.4 605.0,257.2 606.3,259.8 607.7,259.4 609.0,256.2 610.3,254.0 611.6,252.4 612.9,250.8 614.3,245.6 615.6,241.2 616.9,235.8 618.2,231.2 619.5,227.2 620.9,225.6 622.2,225.4 623.5,226.2 624.8,228.8 626.1,231.0 627.5,230.6 628.8,225.6 630.1,219.8 631.4,216.0 632.7,217.0 634.1,220.4 635.4,225.0 636.7,227.8 638.0,233.8 639.3,239.2 640.7,247.2 642.0,256.2 643.3,267.6 644.6,276.0 645.9,276.0 647.3,272.2 648.6,273.8 649.9,279.6 651.2,286.0 652.5,287.0 653.9,283.8 655.2,278.6 656.5,271.6 657.8,266.6 659.1,261.6 660.5,258.0 661.8,256.2 663.1,255.4 664.4,254.8 665.7,254.4 667.1,253.2 668.4,251.0 669.7,247.2 671.0,245.8 672.3,244.4 673.7,244.2 675.0,244.2 676.3,243.8 677.6,243.4 678.9,242.4 680.3,242.2 681.6,243.0 682.9,242.0 684.2,241.8 685.5,241.8 686.9,244.8 688.2,245.6 689.5,244.8 690.8,241.0 692.1,237.2 693.5,235.4 694.8,237.2 696.1,237.6 697.4,234.2 698.7,225.8 700.1,219.4 701.4,215.8 702.7,217.4 704.0,220.4 705.4,224.2 706.7,228.8 708.0,235.4 709.3,242.6 710.6,248.2 712.0,252.6 713.3,255.0 714.6,255.6 715.9,252.6 717.2,248.2 718.6,244.0 719.9,240.0 721.2,236.6 722.5,236.0 723.8,238.6 725.2,243.6 726.5,245.0 727.8,247.0 729.1,248.0 730.4,249.2 731.8,248.8 733.1,248.8 734.4,248.6 735.7,246.6 737.0,243.8 738.4,241.6 739.7,241.8 741.0,241.2 742.3,241.4 743.6,239.0 745.0,235.2 746.3,229.8 747.6,228.2 748.9,230.8 750.2,235.6 751.6,239.4 752.9,244.0 754.2,247.2 755.5,250.6 756.8,254.8 758.2,260.8 759.5,266.2 760.8,269.4 762.1,270.0 763.4,269.6 764.8,268.0 766.1,265.0 767.4,261.8 768.7,257.8 770.0,256.2 771.4,256.0 772.7,255.4 774.0,256.4 775.3,257.0 776.6,258.0 778.0,259.0 779.3,259.8 780.6,260.0 781.9,257.2 783.2,252.0 784.6,244.4 785.9,235.0 787.2,225.6 788.5,218.0 789.8,212.0 791.2,207.2 792.5,203.4 793.8,202.0 795.1,202.2 796.4,205.2 797.8,211.4 799.1,221.2 800.4,230.2 801.7,241.0 803.0,252.6 804.4,265.6 805.7,272.4 807.0,276.2 808.3,277.0 809.6,279.6 811.0,281.4 812.3,281.0 813.6,276.0 814.9,271.4 816.2,269.6 817.6,270.4 818.9,270.8 820.2,272.0 821.5,272.2 822.9,273.2 824.2,275.2 825.5,279.2 826.8,283.0 828.1,283.2 829.5,278.2 830.8,271.4 832.1,266.2 833.4,264.2 834.7,262.8 836.1,261.0 837.4,260.2 838.7,261.0 840.0,262.6 841.3,265.0 842.7,264.8 844.0,263.6 845.3,260.4 846.6,258.8 847.9,256.8 849.3,255.0 850.6,252.4 851.9,251.6 853.2,252.6 854.5,253.8 855.9,255.8 857.2,257.0 858.5,256.2 859.8,253.0 861.1,249.4 862.5,248.2 863.8,246.0 865.1,241.4 866.4,237.0 867.7,234.2 869.1,232.8 870.4,229.8 871.7,225.8 873.0,223.8 874.3,227.2 875.7,231.6 877.0,237.4 878.3,242.4 879.6,250.8 880.9,255.2 882.3,253.2 883.6,248.4 884.9,245.8 886.2,244.8 887.5,244.2 888.9,243.0 890.2,243.0 891.5,242.6 892.8,243.8 894.1,245.4 895.5,246.6 896.8,246.6 898.1,244.4 899.4,240.6 900.7,237.2 902.1,236.0 903.4,236.6 904.7,236.8 906.0,236.2 907.3,237.2 908.7,238.4 910.0,241.0 911.3,241.4 912.6,244.2 913.9,247.8 915.3,251.2 916.6,252.8 917.9,252.2 919.2,255.8 920.5,261.4 921.9,266.8 923.2,267.0 924.5,265.4 925.8,261.4 927.1,257.4 928.5,252.8 929.8,250.6 931.1,248.0 932.4,244.0 933.7,239.2 935.1,234.6 936.4,231.2 937.7,231.2 939.0,236.8 940.3,245.6 941.7,252.4 943.0,256.4 944.3,257.6 945.6,259.4 947.0,261.2 948.3,266.2 949.6,271.4 950.9,276.8 952.2,280.0 953.6,282.0 954.9,282.8 956.2,280.4 957.5,275.8 958.8,270.2 960.2,266.8 961.5,262.2 962.8,257.4 964.1,254.6 965.4,254.8 966.8,257.0 968.1,261.0 969.4,264.6 970.7,267.0 972.0,265.8 973.4,262.2 974.7,256.6 976.0,249.8 977.3,244.4 978.6,241.0 980.0,238.4 981.3,235.8 982.6,229.8 983.9,222.8 985.2,218.8 986.6,220.0 987.9,225.6 989.2,233.2 990.5,243.0 991.8,253.4 993.2,263.2 994.5,271.0 995.8,277.0 997.1,281.2 998.4,282.8 999.8,282.8 1001.1,280.8 1002.4,276.2 1003.7,270.8 1005.0,266.0 1006.4,262.4 1007.7,259.2 1009.0,257.4 1010.3,258.6 1011.6,261.6 1013.0,265.8 1014.3,269.2 1015.6,270.4 1016.9,268.4 1018.2,264.4 1019.6,261.4 1020.9,259.2 1022.2,257.2 1023.5,253.4 1024.8,248.8 1026.2,244.0 1027.5,241.8 1028.8,241.8 1030.1,243.8 1031.4,247.4 1032.8,252.0 1034.1,255.8 1035.4,255.8 1036.7,254.2 1038.0,253.8 1039.4,255.4 1040.7,256.8 1042.0,257.0 1043.3,255.6 1044.6,254.2 1046.0,252.6 1047.3,252.0 1048.6,253.0 1049.9,255.6 1051.2,256.4 1052.6,252.8 1053.9,247.0 1055.2,243.8 1056.5,245.4 1057.8,248.0 1059.2,247.8 1060.5,244.4 1061.8,239.2 1063.1,235.8 1064.5,234.6 1065.8,236.2 1067.1,237.8 1068.4,237.0 1069.7,233.8 1071.1,229.6 1072.4,225.0 1073.7,218.6 1075.0,211.8 1076.3,205.8 1077.7,200.6 1079.0,197.2 1080.3,195.0 1081.6,197.4 1082.9,204.4 1084.3,215.8 1085.6,229.0 1086.9,240.2 1088.2,250.0 1089.5,256.2 1090.9,260.0 1092.2,261.6 1093.5,262.8 1094.8,262.0 1096.1,259.0 1097.5,253.8 1098.8,250.4 1100.1,246.4 1101.4,243.8 1102.7,242.0 1104.1,242.2 1105.4,246.2 1106.7,251.4 1108.0,256.8 1109.3,262.0 1110.7,265.4 1112.0,267.2 1113.3,265.4 1114.6,264.2 1115.9,261.4 1117.3,257.8 1118.6,252.6 1119.9,248.8 1121.2,247.2 1122.5,244.6 1123.9,239.4 1125.2,233.8 1126.5,230.6 1127.8,231.6 1129.1,232.2 1130.5,232.8 1131.8,233.2 1133.1,234.6 1134.4,237.2 1135.7,239.6 1137.1,243.4 1138.4,246.2 1139.7,245.4 1141.0,242.2 1142.3,238.4 1143.7,236.8 1145.0,237.2 1146.3,237.4 1147.6,239.4 1148.9,244.0 1150.3,249.8 1151.6,254.6 1152.9,257.2 1154.2,260.6 1155.5,267.0 1156.9,272.4 1158.2,274.0 1159.5,271.6 1160.8,268.2 1162.1,265.8 1163.5,264.2 1164.8,261.0 1166.1,257.8 1167.4,256.0 1168.7,257.0 1170.1,259.0 1171.4,262.6 1172.7,265.2 1174.0,268.2 1175.3,267.4 1176.7,266.4 1178.0,265.8 1179.3,267.2 1180.6,269.0 1181.9,268.0 1183.3,265.6 1184.6,265.2 1185.9,267.4 1187.2,269.4 1188.6,268.8 1189.9,267.0 1191.2,264.2 1192.5,260.8 1193.8,255.8 1195.2,250.4 1196.5,244.6 1197.8,238.6 1199.1,233.2 1200.4,227.6 1201.8,222.6 1203.1,218.0 1204.4,213.4 1205.7,210.2 1207.0,208.8 1208.4,211.6 1209.7,217.6 1211.0,224.8 1212.3,233.6 1213.6,240.2 1215.0,245.6 1216.3,248.4 1217.6,251.4 1218.9,253.4 1220.2,254.2 1221.6,256.0 1222.9,258.4 1224.2,259.0 1225.5,254.8 1226.8,251.2 1228.2,249.6 1229.5,250.4 1230.8,250.8 1232.1,252.8 1233.4,255.6 1234.8,258.0 1236.1,260.2 1237.4,261.0 1238.7,260.8 1240.0,257.4 1241.4,252.8 1242.7,247.4 1244.0,240.4 1244.0,250" fill="#3a9af4" opacity="0.16" clip-path="url(#dn)"/>
  <polyline points="36.0,280.6 37.3,276.8 38.6,273.2 40.0,273.6 41.3,271.4 42.6,267.0 43.9,260.8 45.2,258.4 46.6,257.8 47.9,258.8 49.2,262.0 50.5,266.0 51.8,266.4 53.2,260.8 54.5,253.4 55.8,246.4 57.1,242.8 58.4,238.4 59.8,236.0 61.1,232.2 62.4,230.2 63.7,227.0 65.0,229.2 66.4,233.8 67.7,239.4 69.0,242.6 70.3,243.2 71.6,244.2 73.0,246.0 74.3,250.0 75.6,251.6 76.9,250.0 78.2,247.0 79.6,248.0 80.9,249.2 82.2,247.0 83.5,242.0 84.8,238.0 86.2,237.4 87.5,236.8 88.8,235.0 90.1,234.6 91.4,235.0 92.8,235.4 94.1,234.4 95.4,233.2 96.7,233.2 98.1,233.8 99.4,234.8 100.7,240.6 102.0,251.0 103.3,258.2 104.7,260.8 106.0,260.0 107.3,262.8 108.6,266.8 109.9,268.0 111.3,265.4 112.6,264.6 113.9,263.2 115.2,263.6 116.5,262.4 117.9,263.8 119.2,266.0 120.5,265.8 121.8,264.4 123.1,263.6 124.5,265.0 125.8,271.8 127.1,278.4 128.4,283.4 129.7,279.4 131.1,272.2 132.4,265.2 133.7,262.6 135.0,260.8 136.3,260.4 137.7,260.2 139.0,261.4 140.3,261.0 141.6,259.2 142.9,258.4 144.3,258.6 145.6,258.6 146.9,255.0 148.2,248.8 149.5,241.8 150.9,235.6 152.2,231.6 153.5,227.8 154.8,225.0 156.1,223.6 157.5,223.4 158.8,222.2 160.1,219.4 161.4,215.2 162.7,213.8 164.1,216.8 165.4,224.6 166.7,231.4 168.0,235.2 169.3,237.2 170.7,238.6 172.0,241.4 173.3,242.2 174.6,241.2 175.9,240.0 177.3,237.8 178.6,237.8 179.9,237.6 181.2,239.6 182.5,243.4 183.9,246.0 185.2,251.4 186.5,253.6 187.8,255.6 189.1,251.8 190.5,250.6 191.8,249.0 193.1,250.8 194.4,252.0 195.7,252.0 197.1,251.4 198.4,249.4 199.7,249.6 201.0,249.4 202.3,247.4 203.7,245.2 205.0,244.6 206.3,246.0 207.6,247.6 208.9,249.0 210.3,249.2 211.6,249.4 212.9,249.2 214.2,248.2 215.5,245.4 216.9,244.6 218.2,247.2 219.5,252.6 220.8,256.0 222.2,255.2 223.5,253.8 224.8,253.2 226.1,254.8 227.4,254.4 228.8,254.0 230.1,255.2 231.4,255.6 232.7,254.0 234.0,250.8 235.4,251.4 236.7,252.2 238.0,254.4 239.3,256.2 240.6,258.6 242.0,258.0 243.3,253.0 244.6,247.0 245.9,244.6 247.2,243.8 248.6,239.6 249.9,232.8 251.2,227.2 252.5,225.6 253.8,224.2 255.2,222.6 256.5,223.8 257.8,228.6 259.1,237.6 260.4,247.6 261.8,256.6 263.1,261.6 264.4,261.6 265.7,262.0 267.0,263.2 268.4,265.2 269.7,266.0 271.0,266.4 272.3,265.6 273.6,261.8 275.0,255.6 276.3,251.4 277.6,246.4 278.9,240.8 280.2,233.4 281.6,225.6 282.9,219.2 284.2,213.0 285.5,210.4 286.8,210.6 288.2,215.6 289.5,222.6 290.8,226.6 292.1,230.4 293.4,236.8 294.8,243.0 296.1,245.2 297.4,245.2 298.7,247.6 300.0,251.0 301.4,252.0 302.7,253.6 304.0,256.0 305.3,258.2 306.6,259.6 308.0,260.6 309.3,259.0 310.6,254.8 311.9,250.0 313.2,249.0 314.6,253.2 315.9,256.0 317.2,257.6 318.5,256.8 319.8,258.8 321.2,262.8 322.5,264.8 323.8,262.4 325.1,258.8 326.4,250.8 327.8,244.4 329.1,238.4 330.4,239.4 331.7,241.0 333.0,239.0 334.4,235.4 335.7,230.4 337.0,227.4 338.3,228.2 339.7,231.0 341.0,234.6 342.3,237.8 343.6,241.4 344.9,242.8 346.3,239.8 347.6,234.2 348.9,232.8 350.2,233.8 351.5,237.4 352.9,239.8 354.2,243.2 355.5,244.2 356.8,246.2 358.1,249.2 359.5,256.0 360.8,262.6 362.1,265.2 363.4,265.4 364.7,264.8 366.1,267.2 367.4,273.0 368.7,277.2 370.0,277.6 371.3,272.4 372.7,267.0 374.0,264.6 375.3,264.8 376.6,266.0 377.9,265.4 379.3,266.4 380.6,267.0 381.9,269.2 383.2,268.0 384.5,264.2 385.9,257.0 387.2,248.8 388.5,241.8 389.8,236.6 391.1,231.6 392.5,227.4 393.8,222.6 395.1,218.4 396.4,213.2 397.7,208.2 399.1,207.6 400.4,213.2 401.7,225.0 403.0,239.2 404.3,252.0 405.7,260.8 407.0,267.4 408.3,272.2 409.6,275.6 410.9,279.0 412.3,284.2 413.6,289.0 414.9,290.6 416.2,286.8 417.5,281.0 418.9,274.6 420.2,270.6 421.5,268.2 422.8,265.4 424.1,260.6 425.5,257.4 426.8,258.2 428.1,262.2 429.4,265.0 430.7,262.8 432.1,260.8 433.4,261.4 434.7,263.0 436.0,264.6 437.3,266.6 438.7,269.6 440.0,272.6 441.3,274.0 442.6,277.4 443.9,278.6 445.3,281.0 446.6,283.0 447.9,281.2 449.2,273.4 450.5,264.6 451.9,259.4 453.2,255.6 454.5,251.0 455.8,246.4 457.1,243.0 458.5,237.6 459.8,233.8 461.1,232.8 462.4,233.0 463.8,235.8 465.1,237.2 466.4,243.2 467.7,245.4 469.0,245.8 470.4,243.2 471.7,243.0 473.0,241.6 474.3,238.6 475.6,235.4 477.0,233.8 478.3,234.2 479.6,236.2 480.9,241.6 482.2,248.8 483.6,253.6 484.9,256.2 486.2,255.8 487.5,257.2 488.8,258.4 490.2,258.4 491.5,255.8 492.8,251.6 494.1,250.0 495.4,249.4 496.8,248.6 498.1,246.0 499.4,244.4 500.7,245.4 502.0,249.0 503.4,249.2 504.7,246.6 506.0,243.4 507.3,241.0 508.6,239.6 510.0,237.2 511.3,238.2 512.6,240.8 513.9,243.2 515.2,242.4 516.6,240.4 517.9,240.8 519.2,245.0 520.5,249.4 521.8,251.4 523.2,249.6 524.5,247.8 525.8,250.2 527.1,255.2 528.4,260.0 529.8,259.4 531.1,257.4 532.4,255.2 533.7,255.8 535.0,256.0 536.4,255.0 537.7,253.2 539.0,252.6 540.3,253.0 541.6,251.6 543.0,251.0 544.3,248.6 545.6,246.2 546.9,240.6 548.2,236.8 549.6,235.6 550.9,234.2 552.2,228.6 553.5,218.4 554.8,210.6 556.2,206.4 557.5,205.4 558.8,206.4 560.1,211.6 561.4,219.2 562.8,224.2 564.1,228.8 565.4,235.6 566.7,243.8 568.0,251.6 569.4,259.2 570.7,266.2 572.0,270.0 573.3,268.2 574.6,262.0 576.0,258.4 577.3,256.8 578.6,258.6 579.9,260.2 581.3,259.0 582.6,256.0 583.9,253.2 585.2,254.8 586.5,261.2 587.9,268.4 589.2,272.8 590.5,270.8 591.8,267.0 593.1,265.4 594.5,265.6 595.8,265.6 597.1,262.6 598.4,259.8 599.7,259.2 601.1,258.0 602.4,257.0 603.7,255.4 605.0,257.2 606.3,259.8 607.7,259.4 609.0,256.2 610.3,254.0 611.6,252.4 612.9,250.8 614.3,245.6 615.6,241.2 616.9,235.8 618.2,231.2 619.5,227.2 620.9,225.6 622.2,225.4 623.5,226.2 624.8,228.8 626.1,231.0 627.5,230.6 628.8,225.6 630.1,219.8 631.4,216.0 632.7,217.0 634.1,220.4 635.4,225.0 636.7,227.8 638.0,233.8 639.3,239.2 640.7,247.2 642.0,256.2 643.3,267.6 644.6,276.0 645.9,276.0 647.3,272.2 648.6,273.8 649.9,279.6 651.2,286.0 652.5,287.0 653.9,283.8 655.2,278.6 656.5,271.6 657.8,266.6 659.1,261.6 660.5,258.0 661.8,256.2 663.1,255.4 664.4,254.8 665.7,254.4 667.1,253.2 668.4,251.0 669.7,247.2 671.0,245.8 672.3,244.4 673.7,244.2 675.0,244.2 676.3,243.8 677.6,243.4 678.9,242.4 680.3,242.2 681.6,243.0 682.9,242.0 684.2,241.8 685.5,241.8 686.9,244.8 688.2,245.6 689.5,244.8 690.8,241.0 692.1,237.2 693.5,235.4 694.8,237.2 696.1,237.6 697.4,234.2 698.7,225.8 700.1,219.4 701.4,215.8 702.7,217.4 704.0,220.4 705.4,224.2 706.7,228.8 708.0,235.4 709.3,242.6 710.6,248.2 712.0,252.6 713.3,255.0 714.6,255.6 715.9,252.6 717.2,248.2 718.6,244.0 719.9,240.0 721.2,236.6 722.5,236.0 723.8,238.6 725.2,243.6 726.5,245.0 727.8,247.0 729.1,248.0 730.4,249.2 731.8,248.8 733.1,248.8 734.4,248.6 735.7,246.6 737.0,243.8 738.4,241.6 739.7,241.8 741.0,241.2 742.3,241.4 743.6,239.0 745.0,235.2 746.3,229.8 747.6,228.2 748.9,230.8 750.2,235.6 751.6,239.4 752.9,244.0 754.2,247.2 755.5,250.6 756.8,254.8 758.2,260.8 759.5,266.2 760.8,269.4 762.1,270.0 763.4,269.6 764.8,268.0 766.1,265.0 767.4,261.8 768.7,257.8 770.0,256.2 771.4,256.0 772.7,255.4 774.0,256.4 775.3,257.0 776.6,258.0 778.0,259.0 779.3,259.8 780.6,260.0 781.9,257.2 783.2,252.0 784.6,244.4 785.9,235.0 787.2,225.6 788.5,218.0 789.8,212.0 791.2,207.2 792.5,203.4 793.8,202.0 795.1,202.2 796.4,205.2 797.8,211.4 799.1,221.2 800.4,230.2 801.7,241.0 803.0,252.6 804.4,265.6 805.7,272.4 807.0,276.2 808.3,277.0 809.6,279.6 811.0,281.4 812.3,281.0 813.6,276.0 814.9,271.4 816.2,269.6 817.6,270.4 818.9,270.8 820.2,272.0 821.5,272.2 822.9,273.2 824.2,275.2 825.5,279.2 826.8,283.0 828.1,283.2 829.5,278.2 830.8,271.4 832.1,266.2 833.4,264.2 834.7,262.8 836.1,261.0 837.4,260.2 838.7,261.0 840.0,262.6 841.3,265.0 842.7,264.8 844.0,263.6 845.3,260.4 846.6,258.8 847.9,256.8 849.3,255.0 850.6,252.4 851.9,251.6 853.2,252.6 854.5,253.8 855.9,255.8 857.2,257.0 858.5,256.2 859.8,253.0 861.1,249.4 862.5,248.2 863.8,246.0 865.1,241.4 866.4,237.0 867.7,234.2 869.1,232.8 870.4,229.8 871.7,225.8 873.0,223.8 874.3,227.2 875.7,231.6 877.0,237.4 878.3,242.4 879.6,250.8 880.9,255.2 882.3,253.2 883.6,248.4 884.9,245.8 886.2,244.8 887.5,244.2 888.9,243.0 890.2,243.0 891.5,242.6 892.8,243.8 894.1,245.4 895.5,246.6 896.8,246.6 898.1,244.4 899.4,240.6 900.7,237.2 902.1,236.0 903.4,236.6 904.7,236.8 906.0,236.2 907.3,237.2 908.7,238.4 910.0,241.0 911.3,241.4 912.6,244.2 913.9,247.8 915.3,251.2 916.6,252.8 917.9,252.2 919.2,255.8 920.5,261.4 921.9,266.8 923.2,267.0 924.5,265.4 925.8,261.4 927.1,257.4 928.5,252.8 929.8,250.6 931.1,248.0 932.4,244.0 933.7,239.2 935.1,234.6 936.4,231.2 937.7,231.2 939.0,236.8 940.3,245.6 941.7,252.4 943.0,256.4 944.3,257.6 945.6,259.4 947.0,261.2 948.3,266.2 949.6,271.4 950.9,276.8 952.2,280.0 953.6,282.0 954.9,282.8 956.2,280.4 957.5,275.8 958.8,270.2 960.2,266.8 961.5,262.2 962.8,257.4 964.1,254.6 965.4,254.8 966.8,257.0 968.1,261.0 969.4,264.6 970.7,267.0 972.0,265.8 973.4,262.2 974.7,256.6 976.0,249.8 977.3,244.4 978.6,241.0 980.0,238.4 981.3,235.8 982.6,229.8 983.9,222.8 985.2,218.8 986.6,220.0 987.9,225.6 989.2,233.2 990.5,243.0 991.8,253.4 993.2,263.2 994.5,271.0 995.8,277.0 997.1,281.2 998.4,282.8 999.8,282.8 1001.1,280.8 1002.4,276.2 1003.7,270.8 1005.0,266.0 1006.4,262.4 1007.7,259.2 1009.0,257.4 1010.3,258.6 1011.6,261.6 1013.0,265.8 1014.3,269.2 1015.6,270.4 1016.9,268.4 1018.2,264.4 1019.6,261.4 1020.9,259.2 1022.2,257.2 1023.5,253.4 1024.8,248.8 1026.2,244.0 1027.5,241.8 1028.8,241.8 1030.1,243.8 1031.4,247.4 1032.8,252.0 1034.1,255.8 1035.4,255.8 1036.7,254.2 1038.0,253.8 1039.4,255.4 1040.7,256.8 1042.0,257.0 1043.3,255.6 1044.6,254.2 1046.0,252.6 1047.3,252.0 1048.6,253.0 1049.9,255.6 1051.2,256.4 1052.6,252.8 1053.9,247.0 1055.2,243.8 1056.5,245.4 1057.8,248.0 1059.2,247.8 1060.5,244.4 1061.8,239.2 1063.1,235.8 1064.5,234.6 1065.8,236.2 1067.1,237.8 1068.4,237.0 1069.7,233.8 1071.1,229.6 1072.4,225.0 1073.7,218.6 1075.0,211.8 1076.3,205.8 1077.7,200.6 1079.0,197.2 1080.3,195.0 1081.6,197.4 1082.9,204.4 1084.3,215.8 1085.6,229.0 1086.9,240.2 1088.2,250.0 1089.5,256.2 1090.9,260.0 1092.2,261.6 1093.5,262.8 1094.8,262.0 1096.1,259.0 1097.5,253.8 1098.8,250.4 1100.1,246.4 1101.4,243.8 1102.7,242.0 1104.1,242.2 1105.4,246.2 1106.7,251.4 1108.0,256.8 1109.3,262.0 1110.7,265.4 1112.0,267.2 1113.3,265.4 1114.6,264.2 1115.9,261.4 1117.3,257.8 1118.6,252.6 1119.9,248.8 1121.2,247.2 1122.5,244.6 1123.9,239.4 1125.2,233.8 1126.5,230.6 1127.8,231.6 1129.1,232.2 1130.5,232.8 1131.8,233.2 1133.1,234.6 1134.4,237.2 1135.7,239.6 1137.1,243.4 1138.4,246.2 1139.7,245.4 1141.0,242.2 1142.3,238.4 1143.7,236.8 1145.0,237.2 1146.3,237.4 1147.6,239.4 1148.9,244.0 1150.3,249.8 1151.6,254.6 1152.9,257.2 1154.2,260.6 1155.5,267.0 1156.9,272.4 1158.2,274.0 1159.5,271.6 1160.8,268.2 1162.1,265.8 1163.5,264.2 1164.8,261.0 1166.1,257.8 1167.4,256.0 1168.7,257.0 1170.1,259.0 1171.4,262.6 1172.7,265.2 1174.0,268.2 1175.3,267.4 1176.7,266.4 1178.0,265.8 1179.3,267.2 1180.6,269.0 1181.9,268.0 1183.3,265.6 1184.6,265.2 1185.9,267.4 1187.2,269.4 1188.6,268.8 1189.9,267.0 1191.2,264.2 1192.5,260.8 1193.8,255.8 1195.2,250.4 1196.5,244.6 1197.8,238.6 1199.1,233.2 1200.4,227.6 1201.8,222.6 1203.1,218.0 1204.4,213.4 1205.7,210.2 1207.0,208.8 1208.4,211.6 1209.7,217.6 1211.0,224.8 1212.3,233.6 1213.6,240.2 1215.0,245.6 1216.3,248.4 1217.6,251.4 1218.9,253.4 1220.2,254.2 1221.6,256.0 1222.9,258.4 1224.2,259.0 1225.5,254.8 1226.8,251.2 1228.2,249.6 1229.5,250.4 1230.8,250.8 1232.1,252.8 1233.4,255.6 1234.8,258.0 1236.1,260.2 1237.4,261.0 1238.7,260.8 1240.0,257.4 1241.4,252.8 1242.7,247.4 1244.0,240.4" fill="none" stroke="#f4623a" stroke-width="1.5" clip-path="url(#up)" opacity="0.85"/>
  <polyline points="36.0,280.6 37.3,276.8 38.6,273.2 40.0,273.6 41.3,271.4 42.6,267.0 43.9,260.8 45.2,258.4 46.6,257.8 47.9,258.8 49.2,262.0 50.5,266.0 51.8,266.4 53.2,260.8 54.5,253.4 55.8,246.4 57.1,242.8 58.4,238.4 59.8,236.0 61.1,232.2 62.4,230.2 63.7,227.0 65.0,229.2 66.4,233.8 67.7,239.4 69.0,242.6 70.3,243.2 71.6,244.2 73.0,246.0 74.3,250.0 75.6,251.6 76.9,250.0 78.2,247.0 79.6,248.0 80.9,249.2 82.2,247.0 83.5,242.0 84.8,238.0 86.2,237.4 87.5,236.8 88.8,235.0 90.1,234.6 91.4,235.0 92.8,235.4 94.1,234.4 95.4,233.2 96.7,233.2 98.1,233.8 99.4,234.8 100.7,240.6 102.0,251.0 103.3,258.2 104.7,260.8 106.0,260.0 107.3,262.8 108.6,266.8 109.9,268.0 111.3,265.4 112.6,264.6 113.9,263.2 115.2,263.6 116.5,262.4 117.9,263.8 119.2,266.0 120.5,265.8 121.8,264.4 123.1,263.6 124.5,265.0 125.8,271.8 127.1,278.4 128.4,283.4 129.7,279.4 131.1,272.2 132.4,265.2 133.7,262.6 135.0,260.8 136.3,260.4 137.7,260.2 139.0,261.4 140.3,261.0 141.6,259.2 142.9,258.4 144.3,258.6 145.6,258.6 146.9,255.0 148.2,248.8 149.5,241.8 150.9,235.6 152.2,231.6 153.5,227.8 154.8,225.0 156.1,223.6 157.5,223.4 158.8,222.2 160.1,219.4 161.4,215.2 162.7,213.8 164.1,216.8 165.4,224.6 166.7,231.4 168.0,235.2 169.3,237.2 170.7,238.6 172.0,241.4 173.3,242.2 174.6,241.2 175.9,240.0 177.3,237.8 178.6,237.8 179.9,237.6 181.2,239.6 182.5,243.4 183.9,246.0 185.2,251.4 186.5,253.6 187.8,255.6 189.1,251.8 190.5,250.6 191.8,249.0 193.1,250.8 194.4,252.0 195.7,252.0 197.1,251.4 198.4,249.4 199.7,249.6 201.0,249.4 202.3,247.4 203.7,245.2 205.0,244.6 206.3,246.0 207.6,247.6 208.9,249.0 210.3,249.2 211.6,249.4 212.9,249.2 214.2,248.2 215.5,245.4 216.9,244.6 218.2,247.2 219.5,252.6 220.8,256.0 222.2,255.2 223.5,253.8 224.8,253.2 226.1,254.8 227.4,254.4 228.8,254.0 230.1,255.2 231.4,255.6 232.7,254.0 234.0,250.8 235.4,251.4 236.7,252.2 238.0,254.4 239.3,256.2 240.6,258.6 242.0,258.0 243.3,253.0 244.6,247.0 245.9,244.6 247.2,243.8 248.6,239.6 249.9,232.8 251.2,227.2 252.5,225.6 253.8,224.2 255.2,222.6 256.5,223.8 257.8,228.6 259.1,237.6 260.4,247.6 261.8,256.6 263.1,261.6 264.4,261.6 265.7,262.0 267.0,263.2 268.4,265.2 269.7,266.0 271.0,266.4 272.3,265.6 273.6,261.8 275.0,255.6 276.3,251.4 277.6,246.4 278.9,240.8 280.2,233.4 281.6,225.6 282.9,219.2 284.2,213.0 285.5,210.4 286.8,210.6 288.2,215.6 289.5,222.6 290.8,226.6 292.1,230.4 293.4,236.8 294.8,243.0 296.1,245.2 297.4,245.2 298.7,247.6 300.0,251.0 301.4,252.0 302.7,253.6 304.0,256.0 305.3,258.2 306.6,259.6 308.0,260.6 309.3,259.0 310.6,254.8 311.9,250.0 313.2,249.0 314.6,253.2 315.9,256.0 317.2,257.6 318.5,256.8 319.8,258.8 321.2,262.8 322.5,264.8 323.8,262.4 325.1,258.8 326.4,250.8 327.8,244.4 329.1,238.4 330.4,239.4 331.7,241.0 333.0,239.0 334.4,235.4 335.7,230.4 337.0,227.4 338.3,228.2 339.7,231.0 341.0,234.6 342.3,237.8 343.6,241.4 344.9,242.8 346.3,239.8 347.6,234.2 348.9,232.8 350.2,233.8 351.5,237.4 352.9,239.8 354.2,243.2 355.5,244.2 356.8,246.2 358.1,249.2 359.5,256.0 360.8,262.6 362.1,265.2 363.4,265.4 364.7,264.8 366.1,267.2 367.4,273.0 368.7,277.2 370.0,277.6 371.3,272.4 372.7,267.0 374.0,264.6 375.3,264.8 376.6,266.0 377.9,265.4 379.3,266.4 380.6,267.0 381.9,269.2 383.2,268.0 384.5,264.2 385.9,257.0 387.2,248.8 388.5,241.8 389.8,236.6 391.1,231.6 392.5,227.4 393.8,222.6 395.1,218.4 396.4,213.2 397.7,208.2 399.1,207.6 400.4,213.2 401.7,225.0 403.0,239.2 404.3,252.0 405.7,260.8 407.0,267.4 408.3,272.2 409.6,275.6 410.9,279.0 412.3,284.2 413.6,289.0 414.9,290.6 416.2,286.8 417.5,281.0 418.9,274.6 420.2,270.6 421.5,268.2 422.8,265.4 424.1,260.6 425.5,257.4 426.8,258.2 428.1,262.2 429.4,265.0 430.7,262.8 432.1,260.8 433.4,261.4 434.7,263.0 436.0,264.6 437.3,266.6 438.7,269.6 440.0,272.6 441.3,274.0 442.6,277.4 443.9,278.6 445.3,281.0 446.6,283.0 447.9,281.2 449.2,273.4 450.5,264.6 451.9,259.4 453.2,255.6 454.5,251.0 455.8,246.4 457.1,243.0 458.5,237.6 459.8,233.8 461.1,232.8 462.4,233.0 463.8,235.8 465.1,237.2 466.4,243.2 467.7,245.4 469.0,245.8 470.4,243.2 471.7,243.0 473.0,241.6 474.3,238.6 475.6,235.4 477.0,233.8 478.3,234.2 479.6,236.2 480.9,241.6 482.2,248.8 483.6,253.6 484.9,256.2 486.2,255.8 487.5,257.2 488.8,258.4 490.2,258.4 491.5,255.8 492.8,251.6 494.1,250.0 495.4,249.4 496.8,248.6 498.1,246.0 499.4,244.4 500.7,245.4 502.0,249.0 503.4,249.2 504.7,246.6 506.0,243.4 507.3,241.0 508.6,239.6 510.0,237.2 511.3,238.2 512.6,240.8 513.9,243.2 515.2,242.4 516.6,240.4 517.9,240.8 519.2,245.0 520.5,249.4 521.8,251.4 523.2,249.6 524.5,247.8 525.8,250.2 527.1,255.2 528.4,260.0 529.8,259.4 531.1,257.4 532.4,255.2 533.7,255.8 535.0,256.0 536.4,255.0 537.7,253.2 539.0,252.6 540.3,253.0 541.6,251.6 543.0,251.0 544.3,248.6 545.6,246.2 546.9,240.6 548.2,236.8 549.6,235.6 550.9,234.2 552.2,228.6 553.5,218.4 554.8,210.6 556.2,206.4 557.5,205.4 558.8,206.4 560.1,211.6 561.4,219.2 562.8,224.2 564.1,228.8 565.4,235.6 566.7,243.8 568.0,251.6 569.4,259.2 570.7,266.2 572.0,270.0 573.3,268.2 574.6,262.0 576.0,258.4 577.3,256.8 578.6,258.6 579.9,260.2 581.3,259.0 582.6,256.0 583.9,253.2 585.2,254.8 586.5,261.2 587.9,268.4 589.2,272.8 590.5,270.8 591.8,267.0 593.1,265.4 594.5,265.6 595.8,265.6 597.1,262.6 598.4,259.8 599.7,259.2 601.1,258.0 602.4,257.0 603.7,255.4 605.0,257.2 606.3,259.8 607.7,259.4 609.0,256.2 610.3,254.0 611.6,252.4 612.9,250.8 614.3,245.6 615.6,241.2 616.9,235.8 618.2,231.2 619.5,227.2 620.9,225.6 622.2,225.4 623.5,226.2 624.8,228.8 626.1,231.0 627.5,230.6 628.8,225.6 630.1,219.8 631.4,216.0 632.7,217.0 634.1,220.4 635.4,225.0 636.7,227.8 638.0,233.8 639.3,239.2 640.7,247.2 642.0,256.2 643.3,267.6 644.6,276.0 645.9,276.0 647.3,272.2 648.6,273.8 649.9,279.6 651.2,286.0 652.5,287.0 653.9,283.8 655.2,278.6 656.5,271.6 657.8,266.6 659.1,261.6 660.5,258.0 661.8,256.2 663.1,255.4 664.4,254.8 665.7,254.4 667.1,253.2 668.4,251.0 669.7,247.2 671.0,245.8 672.3,244.4 673.7,244.2 675.0,244.2 676.3,243.8 677.6,243.4 678.9,242.4 680.3,242.2 681.6,243.0 682.9,242.0 684.2,241.8 685.5,241.8 686.9,244.8 688.2,245.6 689.5,244.8 690.8,241.0 692.1,237.2 693.5,235.4 694.8,237.2 696.1,237.6 697.4,234.2 698.7,225.8 700.1,219.4 701.4,215.8 702.7,217.4 704.0,220.4 705.4,224.2 706.7,228.8 708.0,235.4 709.3,242.6 710.6,248.2 712.0,252.6 713.3,255.0 714.6,255.6 715.9,252.6 717.2,248.2 718.6,244.0 719.9,240.0 721.2,236.6 722.5,236.0 723.8,238.6 725.2,243.6 726.5,245.0 727.8,247.0 729.1,248.0 730.4,249.2 731.8,248.8 733.1,248.8 734.4,248.6 735.7,246.6 737.0,243.8 738.4,241.6 739.7,241.8 741.0,241.2 742.3,241.4 743.6,239.0 745.0,235.2 746.3,229.8 747.6,228.2 748.9,230.8 750.2,235.6 751.6,239.4 752.9,244.0 754.2,247.2 755.5,250.6 756.8,254.8 758.2,260.8 759.5,266.2 760.8,269.4 762.1,270.0 763.4,269.6 764.8,268.0 766.1,265.0 767.4,261.8 768.7,257.8 770.0,256.2 771.4,256.0 772.7,255.4 774.0,256.4 775.3,257.0 776.6,258.0 778.0,259.0 779.3,259.8 780.6,260.0 781.9,257.2 783.2,252.0 784.6,244.4 785.9,235.0 787.2,225.6 788.5,218.0 789.8,212.0 791.2,207.2 792.5,203.4 793.8,202.0 795.1,202.2 796.4,205.2 797.8,211.4 799.1,221.2 800.4,230.2 801.7,241.0 803.0,252.6 804.4,265.6 805.7,272.4 807.0,276.2 808.3,277.0 809.6,279.6 811.0,281.4 812.3,281.0 813.6,276.0 814.9,271.4 816.2,269.6 817.6,270.4 818.9,270.8 820.2,272.0 821.5,272.2 822.9,273.2 824.2,275.2 825.5,279.2 826.8,283.0 828.1,283.2 829.5,278.2 830.8,271.4 832.1,266.2 833.4,264.2 834.7,262.8 836.1,261.0 837.4,260.2 838.7,261.0 840.0,262.6 841.3,265.0 842.7,264.8 844.0,263.6 845.3,260.4 846.6,258.8 847.9,256.8 849.3,255.0 850.6,252.4 851.9,251.6 853.2,252.6 854.5,253.8 855.9,255.8 857.2,257.0 858.5,256.2 859.8,253.0 861.1,249.4 862.5,248.2 863.8,246.0 865.1,241.4 866.4,237.0 867.7,234.2 869.1,232.8 870.4,229.8 871.7,225.8 873.0,223.8 874.3,227.2 875.7,231.6 877.0,237.4 878.3,242.4 879.6,250.8 880.9,255.2 882.3,253.2 883.6,248.4 884.9,245.8 886.2,244.8 887.5,244.2 888.9,243.0 890.2,243.0 891.5,242.6 892.8,243.8 894.1,245.4 895.5,246.6 896.8,246.6 898.1,244.4 899.4,240.6 900.7,237.2 902.1,236.0 903.4,236.6 904.7,236.8 906.0,236.2 907.3,237.2 908.7,238.4 910.0,241.0 911.3,241.4 912.6,244.2 913.9,247.8 915.3,251.2 916.6,252.8 917.9,252.2 919.2,255.8 920.5,261.4 921.9,266.8 923.2,267.0 924.5,265.4 925.8,261.4 927.1,257.4 928.5,252.8 929.8,250.6 931.1,248.0 932.4,244.0 933.7,239.2 935.1,234.6 936.4,231.2 937.7,231.2 939.0,236.8 940.3,245.6 941.7,252.4 943.0,256.4 944.3,257.6 945.6,259.4 947.0,261.2 948.3,266.2 949.6,271.4 950.9,276.8 952.2,280.0 953.6,282.0 954.9,282.8 956.2,280.4 957.5,275.8 958.8,270.2 960.2,266.8 961.5,262.2 962.8,257.4 964.1,254.6 965.4,254.8 966.8,257.0 968.1,261.0 969.4,264.6 970.7,267.0 972.0,265.8 973.4,262.2 974.7,256.6 976.0,249.8 977.3,244.4 978.6,241.0 980.0,238.4 981.3,235.8 982.6,229.8 983.9,222.8 985.2,218.8 986.6,220.0 987.9,225.6 989.2,233.2 990.5,243.0 991.8,253.4 993.2,263.2 994.5,271.0 995.8,277.0 997.1,281.2 998.4,282.8 999.8,282.8 1001.1,280.8 1002.4,276.2 1003.7,270.8 1005.0,266.0 1006.4,262.4 1007.7,259.2 1009.0,257.4 1010.3,258.6 1011.6,261.6 1013.0,265.8 1014.3,269.2 1015.6,270.4 1016.9,268.4 1018.2,264.4 1019.6,261.4 1020.9,259.2 1022.2,257.2 1023.5,253.4 1024.8,248.8 1026.2,244.0 1027.5,241.8 1028.8,241.8 1030.1,243.8 1031.4,247.4 1032.8,252.0 1034.1,255.8 1035.4,255.8 1036.7,254.2 1038.0,253.8 1039.4,255.4 1040.7,256.8 1042.0,257.0 1043.3,255.6 1044.6,254.2 1046.0,252.6 1047.3,252.0 1048.6,253.0 1049.9,255.6 1051.2,256.4 1052.6,252.8 1053.9,247.0 1055.2,243.8 1056.5,245.4 1057.8,248.0 1059.2,247.8 1060.5,244.4 1061.8,239.2 1063.1,235.8 1064.5,234.6 1065.8,236.2 1067.1,237.8 1068.4,237.0 1069.7,233.8 1071.1,229.6 1072.4,225.0 1073.7,218.6 1075.0,211.8 1076.3,205.8 1077.7,200.6 1079.0,197.2 1080.3,195.0 1081.6,197.4 1082.9,204.4 1084.3,215.8 1085.6,229.0 1086.9,240.2 1088.2,250.0 1089.5,256.2 1090.9,260.0 1092.2,261.6 1093.5,262.8 1094.8,262.0 1096.1,259.0 1097.5,253.8 1098.8,250.4 1100.1,246.4 1101.4,243.8 1102.7,242.0 1104.1,242.2 1105.4,246.2 1106.7,251.4 1108.0,256.8 1109.3,262.0 1110.7,265.4 1112.0,267.2 1113.3,265.4 1114.6,264.2 1115.9,261.4 1117.3,257.8 1118.6,252.6 1119.9,248.8 1121.2,247.2 1122.5,244.6 1123.9,239.4 1125.2,233.8 1126.5,230.6 1127.8,231.6 1129.1,232.2 1130.5,232.8 1131.8,233.2 1133.1,234.6 1134.4,237.2 1135.7,239.6 1137.1,243.4 1138.4,246.2 1139.7,245.4 1141.0,242.2 1142.3,238.4 1143.7,236.8 1145.0,237.2 1146.3,237.4 1147.6,239.4 1148.9,244.0 1150.3,249.8 1151.6,254.6 1152.9,257.2 1154.2,260.6 1155.5,267.0 1156.9,272.4 1158.2,274.0 1159.5,271.6 1160.8,268.2 1162.1,265.8 1163.5,264.2 1164.8,261.0 1166.1,257.8 1167.4,256.0 1168.7,257.0 1170.1,259.0 1171.4,262.6 1172.7,265.2 1174.0,268.2 1175.3,267.4 1176.7,266.4 1178.0,265.8 1179.3,267.2 1180.6,269.0 1181.9,268.0 1183.3,265.6 1184.6,265.2 1185.9,267.4 1187.2,269.4 1188.6,268.8 1189.9,267.0 1191.2,264.2 1192.5,260.8 1193.8,255.8 1195.2,250.4 1196.5,244.6 1197.8,238.6 1199.1,233.2 1200.4,227.6 1201.8,222.6 1203.1,218.0 1204.4,213.4 1205.7,210.2 1207.0,208.8 1208.4,211.6 1209.7,217.6 1211.0,224.8 1212.3,233.6 1213.6,240.2 1215.0,245.6 1216.3,248.4 1217.6,251.4 1218.9,253.4 1220.2,254.2 1221.6,256.0 1222.9,258.4 1224.2,259.0 1225.5,254.8 1226.8,251.2 1228.2,249.6 1229.5,250.4 1230.8,250.8 1232.1,252.8 1233.4,255.6 1234.8,258.0 1236.1,260.2 1237.4,261.0 1238.7,260.8 1240.0,257.4 1241.4,252.8 1242.7,247.4 1244.0,240.4" fill="none" stroke="#3a9af4" stroke-width="1.5" clip-path="url(#dn)" opacity="0.85"/>
  <line x1="36" y1="250" x2="1244" y2="250" stroke="#33415f" stroke-width="1"/>
  <line x1="36" y1="240.0" x2="1244" y2="240.0" stroke="#f4623a" stroke-width="0.8" stroke-dasharray="4 4" opacity="0.4"/>
  <line x1="36" y1="260.0" x2="1244" y2="260.0" stroke="#3a9af4" stroke-width="0.8" stroke-dasharray="4 4" opacity="0.4"/>
  <circle cx="1244.0" cy="240.4" r="3.5" fill="#f4623a"/>

  <!-- command bar -->
  <text x="36" y="40" font-family="ui-monospace,monospace" font-size="15" font-weight="700" fill="#00d4b4">ENSO&lt;GO&gt;</text>
  <text x="120" y="40" font-family="ui-monospace,monospace" font-size="12" fill="#7e8aa3">MACRO RISK DESK</text>
  <circle cx="1170" cy="35" r="4" fill="#f4623a"/>
  <text x="1182" y="40" font-family="ui-monospace,monospace" font-size="12" font-weight="700" fill="#f4623a">LIVE</text>

  <!-- title block -->
  <text x="36" y="118" font-size="52" font-weight="800" fill="#e8edf5" letter-spacing="-1">ENSO Macro Risk Desk</text>
  <text x="38" y="156" font-size="19" fill="#aeb8cc">When the ENSO cycle shifts, what commodity &amp; sector exposure do you reposition —</text>
  <text x="38" y="182" font-size="19" fill="#aeb8cc">and which links are <tspan fill="#00d4b4" font-weight="700">causally real vs. spurious?</tspan></text>

  <!-- stack chips -->
  <g font-family="ui-monospace,monospace" font-size="11.5" font-weight="600">
    <g fill="#9fb0c9">
      <rect x="36"  y="300" width="118" height="26" rx="6" fill="#0e1424" stroke="#222c44"/><text x="50" y="317">Granger + CCM</text>
      <rect x="162" y="300" width="118" height="26" rx="6" fill="#0e1424" stroke="#222c44"/><text x="176" y="317">SARIMA + LSTM</text>
      <rect x="288" y="300" width="96"  height="26" rx="6" fill="#0e1424" stroke="#222c44"/><text x="302" y="317">NOAA CPC</text>
      <rect x="392" y="300" width="120" height="26" rx="6" fill="#0e1424" stroke="#222c44"/><text x="406" y="317">HoloViz Panel</text>
      <rect x="520" y="300" width="78"  height="26" rx="6" fill="#0e1424" stroke="#222c44"/><text x="534" y="317">Plotly</text>
    </g>
    <text x="1244" y="317" text-anchor="end" fill="#5b6577">1950 &#8594; 2026 &#183; real ONI record</text>
  </g>
</svg>